<svg xmlns="http://www.w3.org/2000/svg" width="24" height="24" viewBox="0 0 24 24" fill="none">
  <!-- Layer 1: lightest background fill -->
  <path d="M20.84 4.61a5.5 5.5 0 0 0-7.78 0L12 5.67l-1.06-1.06a5.5 5.5 0 0 0-7.78 7.78l1.06 1.06L12 21.23l7.78-7.78 1.06-1.06a5.5 5.5 0 0 0 0-7.78z" fill="currentColor" opacity="0.15"/>
  <!-- Layer 2: darker inner highlight -->
  <path d="M16.5 8a3.5 3.5 0 0 0-3.5 1.5A3.5 3.5 0 0 0 9.5 8C7.57 8 6 9.57 6 11.5 6 15 12 19 12 19s6-4 6-7.5C18 9.57 16.43 8 14.5 8z" fill="currentColor" opacity="0.4"/>
</svg>
