<svg xmlns="http://www.w3.org/2000/svg" width="24" height="24" viewBox="0 0 24 24" fill="none">
  <!-- Background — secondary color, translucent -->
  <path d="M6.1,11.8c0,.2.1.5.4.6l5.5,2.5c.3.2.7.2,1.1,0l5.5-2.5c.2-.1.4-.3.4-.6" fill="currentColor" opacity="0.2" data-color="secondary"/>
  <path d="M3.9,16.6c0,.3.2.6.5.8l7.4,3.4c.5.2,1,.2,1.4,0l7.4-3.4c.3-.1.5-.5.5-.8" fill="currentColor" opacity="0.2" data-color="secondary"/>
  <path d="M12.5,9.9l3.2-1.6-3.2-6.4-3.2,6.4,3.2,1.6Z" fill="currentColor" opacity="0.2" data-color="secondary"/>
  <!-- Foreground — primary strokes -->
  <path d="M6.1,11.8c0,.2.1.5.4.6l5.5,2.5c.3.2.7.2,1.1,0l5.5-2.5c.2-.1.4-.3.4-.6" stroke="currentColor" stroke-width="1.5" stroke-linecap="round" stroke-linejoin="round"/>
  <path d="M3.9,16.6c0,.3.2.6.5.8l7.4,3.4c.5.2,1,.2,1.4,0l7.4-3.4c.3-.1.5-.5.5-.8" stroke="currentColor" stroke-width="1.5" stroke-linecap="round" stroke-linejoin="round"/>
  <path d="M12.5,9.9l3.2-1.6-3.2-6.4-3.2,6.4,3.2,1.6Z" stroke="currentColor" stroke-width="1.5" stroke-linecap="round" stroke-linejoin="round"/>
</svg>
