<svg xmlns="http://www.w3.org/2000/svg" width="24" height="24" viewBox="-2.625 -1.18 24 24" fill="none">
  <path d="M13.72,7.08c-.02.41-.25.77-.63.96l-.45.2-2.62,1.19c-.2.1-.42.15-.63.15,0,0-.02,0-.03,0,0,0,0,0,0,0,0,0-.02,0-.03,0-.2,0-.4-.06-.58-.16l-2.57-1.17-.43-.2c-.35-.11-.62-.5-.65-.94l-2.16,3.93s.08-.03.12-.03c.39,0,.71.3.75.68l.38.17,4.99,2.26s.07.04.11.06c.06.04.19.02.33-.05l4.99-2.27.45-.21c0-.41.31-.7.73-.7.01,0,.03,0,.04,0l-2.1-3.89Z" fill="currentColor"/>
  <path d="M18.66,16.27l-2.22-4.12c-.11.37-.37.68-.75.87l-.38.17-5.05,2.3c-.29.15-.59.22-.89.22s-.6-.08-.87-.24l-5.05-2.29-.32-.15c-.43-.14-.69-.54-.79-.95L.09,16.18s0,.03-.01.04c-.02.05-.03.1-.04.15-.01.05-.03.09-.03.14,0,.01,0,.03,0,.04,0,.54.31,1.08.83,1.42.03.02.07.04.1.06l7.43,3.41c.34.14.69.21,1.02.21s.68-.07.97-.22l7.32-3.37c.47-.16.77-.57.91-.99.05-.06.09-.13.11-.21.06-.19.04-.4-.05-.58Z" fill="currentColor"/>
  <path d="M10.11.39c-.13-.24-.38-.39-.66-.39h0c-.19,0-.36.09-.49.22-.12.06-.22.16-.28.28l-.51,1.02-2.68,4.85c.09-.04.18-.07.29-.08.02,0,.03,0,.05,0,.32,0,.59.2.7.48l2.87,1.3,2.87-1.31c.1-.26.35-.44.64-.47.02,0,.04,0,.05,0,.14,0,.27.05.38.12L10.11.39Z" fill="currentColor"/>
</svg>